<?xml version="1.0" encoding="UTF-8"?>
<svg width="150px" height="40px" viewBox="0 0 150 40" version="1.1" xmlns="http://www.w3.org/2000/svg" xmlns:xlink="http://www.w3.org/1999/xlink">
    <!-- Generator: Sketch 63.1 (92452) - https://sketch.com -->
    <title>Druyp_logo_home@2x</title>
    <desc>Created with Sketch.</desc>
    <g id="Website-design" stroke="none" stroke-width="1" fill="none" fill-rule="evenodd">
        <g id="1-landing-page" transform="translate(-134.000000, -45.000000)" fill="#00A7F7" fill-rule="nonzero">
            <g id="header">
                <g id="navigation" transform="translate(134.000000, 40.000000)">
                    <path d="M11.9294458,35.620985 C22.0126679,35.620985 27.054279,30.2391149 27.054279,19.4753747 C27.054279,9.82512491 22.0126679,5 11.9294458,5 L11.9294458,5 L0,5 L0,35.620985 L11.9294458,35.620985 Z M11.9294458,30.6959315 L5.6451842,30.6959315 L5.6451842,9.92505353 L11.9294458,9.92505353 C18.2492118,9.92505353 21.4090948,13.1084939 21.4090948,19.4753747 C21.4090948,26.9557459 18.2492118,30.6959315 11.9294458,30.6959315 L11.9294458,30.6959315 Z M45.6855171,35.620985 L45.6855171,20.3533191 C47.3471185,18.5974304 49.2288465,17.7194861 51.3307013,17.7194861 L51.3307013,17.7194861 L51.3307013,13.137045 C49.1436362,13.137045 47.0701849,14.0935046 45.1103474,16.006424 L45.1103474,16.006424 L44.4073622,13.137045 L40.0403329,13.137045 L40.0403329,35.620985 L45.6855171,35.620985 Z M83.382566,35.620985 L83.382566,13.137045 L77.7373818,13.137045 L77.7373818,28.8329764 C75.8343511,30.3033547 73.9668248,31.0385439 72.1348027,31.0385439 C69.9761411,31.0385439 68.8968103,29.7965739 68.8968103,27.3126338 L68.8968103,27.3126338 L68.8968103,13.137045 L63.2516261,13.137045 L63.2516261,27.4625268 C63.2516261,32.9014989 65.5381032,35.620985 70.1110575,35.620985 C72.9940069,35.620985 75.7207374,34.6645253 78.2912489,32.751606 L78.2912489,32.751606 L78.9729315,35.620985 L83.382566,35.620985 Z M100.607834,45 C104.229273,43.2726624 106.863692,40.3675946 108.511092,36.2847966 L108.511092,36.2847966 L117.799017,13.137045 L111.919505,13.137045 L106.402136,29.3254818 L100.756952,13.137045 L94.7709262,13.137045 L103.334564,35.7494647 C102.198426,38.2334047 100.380606,40.0249822 97.8811032,41.124197 L97.8811032,41.124197 L100.607834,45 Z M134.832562,43.75803 L134.832562,34.5503212 C136.366348,35.2640971 137.885932,35.620985 139.391314,35.620985 C146.463771,35.620985 150,31.6880799 150,23.8222698 C150,16.6987866 146.20104,13.137045 138.603119,13.137045 C135.294118,13.137045 132.155537,13.4439686 129.187378,14.0578158 L129.187378,14.0578158 L129.187378,43.75803 L134.832562,43.75803 Z M139.370012,30.9100642 C137.751015,30.9100642 136.238532,30.5246253 134.832562,29.7537473 L134.832562,29.7537473 L134.832562,18.0192719 C135.897691,17.8194147 137.232653,17.7194861 138.837447,17.7194861 C142.558298,17.7194861 144.418724,19.7394718 144.418724,23.7794433 C144.418724,28.5331906 142.73582,30.9100642 139.370012,30.9100642 Z" id="Druyp_logo_home"></path>
                </g>
            </g>
        </g>
    </g>
</svg>