<?xml version="1.0" encoding="UTF-8"?>
<svg width="13px" height="18px" viewBox="0 0 13 18" version="1.1" xmlns="http://www.w3.org/2000/svg" xmlns:xlink="http://www.w3.org/1999/xlink">
    <!-- Generator: Sketch 63.1 (92452) - https://sketch.com -->
    <title>ic_upload_document@2x</title>
    <desc>Created with Sketch.</desc>
    <g id="Website-design" stroke="none" stroke-width="1" fill="none" fill-rule="evenodd">
        <g id="9-register-F" transform="translate(-824.000000, -717.000000)" fill="#00A7F7">
            <g id="upload-document" transform="translate(792.000000, 688.000000)">
                <path d="M44.4727778,33.5283333 L40.4716667,29.5272222 C40.1332856,29.1896954 39.6748839,29 39.1969444,29 L33.8055556,29 C32.8083748,29 32,29.8083748 32,30.8055556 L32,44.5277778 C32,45.0066409 32.1902276,45.465891 32.528835,45.8044984 C32.8674423,46.1431057 33.3266924,46.3333333 33.8055556,46.3333333 L43.1944444,46.3333333 C44.1916252,46.3333333 45,45.5249586 45,44.5277778 L45,34.8030556 C45,34.3251161 44.8103046,33.8667144 44.4727778,33.5283333 Z M43.0463889,35.1388889 L40.6666667,35.1388889 C39.6694859,35.1388889 38.8611111,34.3305141 38.8611111,33.3333333 L38.8611111,30.9536111 C38.8617235,30.8075619 38.9502504,30.6762613 39.0854144,30.620931 C39.2205785,30.5656007 39.3757634,30.5971362 39.4786111,30.7008333 L43.2991667,34.5213889 C43.4028638,34.6242366 43.4343993,34.7794215 43.379069,34.9145856 C43.3237387,35.0497496 43.1924381,35.1382765 43.0463889,35.1388889 Z" id="ic_upload_document"></path>
            </g>
        </g>
    </g>
</svg>