<?xml version="1.0" encoding="UTF-8"?>
<svg width="342px" height="193px" viewBox="0 0 342 193" version="1.1" xmlns="http://www.w3.org/2000/svg" xmlns:xlink="http://www.w3.org/1999/xlink">
    <!-- Generator: Sketch 63.1 (92452) - https://sketch.com -->
    <title>ic_verification@2x</title>
    <desc>Created with Sketch.</desc>
    <g id="Website-design" stroke="none" stroke-width="1" fill="none" fill-rule="evenodd">
        <g id="3.1-profile-phone-verify" transform="translate(-549.000000, -239.000000)">
            <g id="Group-3" transform="translate(478.000000, 224.000000)">
                <g id="ic_verification" transform="translate(71.000000, 0.000000)">
                    <path d="M188.416667,47 C194.537823,47 199.5,51.9696393 199.5,58.1 C199.5,64.2303607 194.537823,69.2 188.416667,69.2 L289.75,69.2 C295.871156,69.2 300.833333,74.1696393 300.833333,80.3 C300.833333,86.4303607 295.871156,91.4 289.75,91.4 L324.583333,91.4 C330.704489,91.4 335.666667,96.3696393 335.666667,102.5 C335.666667,108.630361 330.704489,113.6 324.583333,113.6 L294.5,113.6 C288.378844,113.6 283.416667,118.569639 283.416667,124.7 C283.416667,130.830361 288.378844,135.8 294.5,135.8 L304,135.8 C310.121156,135.8 315.083333,140.769639 315.083333,146.9 C315.083333,153.030361 310.121156,158 304,158 L72.8333333,158 C66.7121774,158 61.75,153.030361 61.75,146.9 C61.75,140.769639 66.7121774,135.8 72.8333333,135.8 L11.0833333,135.8 C4.96217736,135.8 0,130.830361 0,124.7 C0,118.569639 4.96217736,113.6 11.0833333,113.6 L74.4166667,113.6 C80.5378226,113.6 85.5,108.630361 85.5,102.5 C85.5,96.3696393 80.5378226,91.4 74.4166667,91.4 L34.8333333,91.4 C28.7121774,91.4 23.75,86.4303607 23.75,80.3 C23.75,74.1696393 28.7121774,69.2 34.8333333,69.2 L98.1666667,69.2 C92.0455107,69.2 87.0833333,64.2303607 87.0833333,58.1 C87.0833333,51.9696393 92.0455107,47 98.1666667,47 L188.416667,47 Z M330.916667,135.8 C337.037823,135.8 342,140.769639 342,146.9 C342,153.030361 337.037823,158 330.916667,158 C324.795511,158 319.833333,153.030361 319.833333,146.9 C319.833333,140.769639 324.795511,135.8 330.916667,135.8 Z" id="BG" fill="#00A7F7" opacity="0.0397135417"></path>
                    <path d="M165.455544,183.108106 C171.066111,184.223321 176.82545,184.4162 180.99288,184.106046 M187.822037,183.497683 L187.822037,183.497683 C191.435774,183.068448 194.971821,182.384676 198.411894,181.464722 C205.977941,179.441388 213.079735,176.275568 219.522762,172.162533 C226.038968,168.002783 231.881358,162.874179 236.848716,156.978718 C241.183213,151.834363 244.85144,146.106106 247.719706,139.928158 C250.565324,133.79899 252.623564,127.227205 253.763877,120.343858 C254.443372,116.242178 254.79693,112.029869 254.79693,107.734661 C254.79693,101.428549 254.034823,95.3011292 252.598024,89.440157 C251.054231,83.1427339 248.73152,77.1529195 245.738328,71.5795712 C241.98976,64.5997063 237.189597,58.273034 231.550832,52.813375 C227.163534,48.5654315 222.268564,44.8423586 216.966248,41.7448702 C210.996901,38.257718 204.511273,35.5634476 197.652512,33.8057645 C191.623242,32.2606537 185.305635,31.4392892 178.79693,31.4392892 C170.61752,31.4392892 162.739902,32.7364411 155.357065,35.1370075 C148.12894,37.4872687 141.375075,40.8951836 135.276578,45.1789413 C128.993521,49.5923396 123.406099,54.9353944 118.712364,61.0092839 C112.628723,68.8817701 108.046411,77.9820039 105.396664,87.8770732 C103.701167,94.2086412 102.79693,100.865643 102.79693,107.734661 C102.79693,118.639317 105.075787,129.00965 109.181494,138.391896 C114.174403,149.801551 121.868995,159.749949 131.452362,167.421022 C139.495511,173.859217 148.869102,178.693277 159.092557,181.440753" id="Shape" stroke="#00A7F7" stroke-width="2.5" fill="#FFFFFF" stroke-linecap="round" transform="translate(178.796930, 107.839185) rotate(-44.000000) translate(-178.796930, -107.839185) "></path>
                    <g id="bling" transform="translate(236.000000, 17.000000)" stroke="#00A7F7" stroke-linecap="round" stroke-linejoin="round" stroke-width="2.5">
                        <line x1="16.5" y1="0" x2="16.5" y2="9.6" id="Line"></line>
                        <line x1="16.5" y1="22.4" x2="16.5" y2="32" id="Line"></line>
                        <line x1="5.5" y1="11.2857143" x2="5.5" y2="20.7142857" id="Line" transform="translate(5.500000, 16.000000) rotate(-90.000000) translate(-5.500000, -16.000000) "></line>
                        <line x1="27.5" y1="11.2857143" x2="27.5" y2="20.7142857" id="Line" transform="translate(27.500000, 16.000000) rotate(-90.000000) translate(-27.500000, -16.000000) "></line>
                    </g>
                    <g id="bling" transform="translate(108.000000, 181.000000)" stroke="#00A7F7" stroke-linecap="round" stroke-linejoin="round" stroke-width="2.5">
                        <line x1="13.5" y1="0" x2="13.5" y2="6.25" id="Line"></line>
                        <line x1="13.5" y1="18.75" x2="13.5" y2="25" id="Line"></line>
                        <line x1="3.97058824" y1="9.32352941" x2="3.97058824" y2="15.6764706" id="Line" transform="translate(3.970588, 12.500000) rotate(-90.000000) translate(-3.970588, -12.500000) "></line>
                        <line x1="23.0294118" y1="9.32352941" x2="23.0294118" y2="15.6764706" id="Line" transform="translate(23.029412, 12.500000) rotate(-90.000000) translate(-23.029412, -12.500000) "></line>
                    </g>
                    <path d="M160.750207,64.015319 C157.586849,62.643537 154.296333,61.511249 150.901335,60.6412186 C145.625724,59.2892466 140.097818,58.5705527 134.402701,58.5705527 C132.068171,58.5705527 129.761738,58.6913168 127.489262,58.9269615 M119.987088,60.1433745 C117.917803,60.6024925 115.88473,61.1583763 113.892819,61.8060562 C112.421662,62.2844103 110.972958,62.8128372 109.548702,63.3893347" id="Shape" stroke="#00A7F7" stroke-width="2.5" stroke-linecap="round" transform="translate(135.149455, 61.292936) rotate(-44.000000) translate(-135.149455, -61.292936) "></path>
                    <path d="M148.448678,106.750156 C146.147724,104.673105 142.578519,104.832576 140.476635,107.106345 C138.374751,109.380114 138.536129,112.907151 140.837083,114.984202 L167.394252,138.957135 C170.615587,141.865006 175.612474,141.641747 178.555111,138.45847 C178.678162,138.323263 178.678162,138.323263 178.796905,138.184346 L216.695966,93.1413515 C218.688418,90.7733244 218.361003,87.2575403 215.964664,85.288628 C213.568326,83.3197157 210.010508,83.6432622 208.018056,86.0112893 L172.38685,128.358941 L148.448678,106.750156 Z" id="Path-7" stroke="#00A7F7" stroke-width="2.5" fill="#E8F0FE" fill-rule="nonzero"></path>
                </g>
            </g>
        </g>
    </g>
</svg>